<?xml version="1.0" standalone="no"?>
<!DOCTYPE svg PUBLIC "-//W3C//DTD SVG 20010904//EN"
 "http://www.w3.org/TR/2001/REC-SVG-20010904/DTD/svg10.dtd">
<svg version="1.0" xmlns="http://www.w3.org/2000/svg"
 width="200.000000pt" height="200.000000pt" viewBox="0 0 200.000000 200.000000"
 preserveAspectRatio="xMidYMid meet">

<g transform="translate(0.000000,200.000000) scale(0.100000,-0.100000)"
fill="#264066" stroke="none">
<path d="M840 1985 c-517 -81 -891 -573 -831 -1092 63 -549 557 -947 1099
-884 467 54 829 416 883 884 61 524 -316 1013 -841 1093 -114 17 -196 17 -310
-1z m360 -422 c0 -93 3 -354 7 -580 l6 -413 84 0 83 0 0 345 0 345 130 0 130
0 0 -100 0 -100 48 0 c36 0 54 5 67 20 25 28 79 27 99 -2 23 -32 20 -74 -6
-98 -29 -27 -64 -25 -94 5 -21 21 -34 25 -88 25 l-63 0 -7 53 c-3 28 -6 73 -6
100 l0 47 -80 0 -80 0 0 -345 0 -345 -135 0 -135 0 0 338 c0 186 -3 447 -7
580 l-6 242 -89 0 -88 0 0 -211 0 -212 25 -23 c30 -28 32 -63 5 -92 -25 -26
-76 -29 -102 -5 -24 22 -23 75 2 98 19 17 20 31 20 250 0 127 3 235 7 238 3 4
66 7 140 7 l133 0 0 -167z m-522 -129 c11 -34 35 -138 52 -230 18 -93 34 -175
36 -181 2 -9 32 -13 104 -13 l100 0 0 -401 c0 -429 -1 -435 -47 -353 -35 61
-82 276 -141 639 l-18 110 -159 3 -160 2 -32 -102 c-43 -141 -79 -177 -121
-123 -21 26 -82 184 -82 211 0 11 21 14 114 14 101 0 115 2 120 18 3 9 23 91
45 182 48 198 74 276 103 307 l22 24 22 -23 c12 -13 31 -51 42 -84z"/>
</g>
</svg>
