<?xml version="1.0" standalone="no"?>
<!DOCTYPE svg PUBLIC "-//W3C//DTD SVG 20010904//EN"
 "http://www.w3.org/TR/2001/REC-SVG-20010904/DTD/svg10.dtd">
<svg version="1.0" xmlns="http://www.w3.org/2000/svg"
 width="267.000000pt" height="267.000000pt" viewBox="0 0 267.000000 267.000000"
 preserveAspectRatio="xMidYMid meet">

<g transform="translate(0.000000,267.000000) scale(0.100000,-0.100000)"
fill="#112d4e" stroke="none">
<path d="M1195 2663 c-207 -26 -455 -121 -621 -239 -88 -62 -257 -230 -316
-314 -290 -414 -331 -926 -111 -1365 95 -188 260 -380 428 -497 149 -103 349
-188 515 -218 36 -6 87 -16 113 -21 62 -12 199 -12 246 0 20 5 71 15 113 21
272 40 563 198 755 410 249 275 389 698 344 1042 -26 199 -128 457 -249 627
-59 84 -206 232 -297 299 -149 111 -430 225 -620 251 -72 10 -234 13 -300 4z
m409 -1015 c3 -365 9 -714 12 -775 l7 -113 113 0 114 0 0 460 0 460 170 0 170
0 0 -135 0 -135 48 0 c32 0 66 9 105 29 48 24 64 28 89 20 35 -10 32 -7 47
-36 19 -37 13 -82 -14 -108 -33 -34 -75 -32 -127 5 -37 27 -48 30 -120 30 -67
0 -78 2 -79 18 -1 9 -4 69 -8 132 l-6 115 -107 3 -108 3 0 -461 0 -460 -178 0
-179 0 -6 753 c-4 413 -9 762 -13 775 -6 22 -9 23 -123 20 l-116 -3 -3 -277
-2 -277 36 -47 c40 -54 40 -84 -2 -121 -32 -29 -83 -30 -118 -2 -34 26 -35 78
-3 122 21 31 22 42 28 342 4 171 7 311 8 312 3 4 105 10 227 11 l131 2 7 -662z
m-749 364 c40 -61 62 -135 115 -397 27 -136 52 -251 56 -256 3 -5 63 -9 135
-9 l129 0 0 -499 c0 -479 -3 -561 -21 -561 -13 0 -57 101 -82 190 -31 108 -78
343 -125 630 -36 216 -39 225 -62 231 -14 4 -111 7 -216 8 l-190 1 -43 -129
c-64 -194 -101 -235 -154 -172 -42 51 -126 274 -107 286 5 3 72 8 149 12 83 3
145 11 150 17 4 6 31 104 60 219 28 114 64 249 81 300 29 89 71 167 90 167 5
0 21 -17 35 -38z"/>
</g>
</svg>
